<svg viewBox="0 0 540 540" xmlns="http://www.w3.org/2000/svg"><g fill="green" font-family="MA Sexy" font-size="87.316" letter-spacing="0" word-spacing="0"><path d="M148.42 127c4.952 1.651 11.658 10.162 20.118 25.535l14.547 21.356c25.792-48.902 46.117-76.5 60.973-82.794 14.959-6.396 27.959 2.837 38.998 27.701s14.959 71.29 11.761 139.28c11.348-71.084 22.646-115.7 33.891-133.86 11.348-18.261 20.892-29.609 28.63-34.046s16.146-5.777 25.225-4.024c9.182 1.651 17.126 7.996 23.832 19.035 6.706 10.936 9.956 33.48 9.75 67.628s-2.528 60.922-6.964 80.318c-4.334 19.396-7.687 43.641-10.06 72.735-2.373 28.991.929 47.252 9.905 54.783 9.078 7.635 17.28 8.46 24.606 2.477 7.325-5.881 12.07-14.238 14.237-25.07 2.27-10.833 3.868-15.114 4.797-12.845.929 2.166 1.393 4.797 1.393 7.892.103 3.095.412 7.84.929 14.237s-1.806 13.515-6.964 21.356c-5.056 7.944-13.206 11.452-24.451 10.523-11.246-.825-21.408-5.932-30.487-15.321-9.08-9.285-13.464-25.328-13.154-48.129.412-22.904 2.32-47.819 5.726-74.747 3.507-26.927 5.983-55.969 7.428-87.127 1.547-31.157-1.29-52.72-8.512-64.687-7.119-11.967-16.507-12.69-28.165-2.167-11.555 10.524-20.84 27.392-27.856 50.605-7.015 23.11-12.742 48.49-17.178 76.14-4.436 27.545-8.77 49.985-12.999 67.317s-8.976 26.102-14.237 26.308c-2.785-18.467-4.9-42.557-6.345-72.27-1.444-29.816-3.25-57.569-5.416-83.258-2.064-25.792-7.17-43.176-15.321-52.152-8.047-9.078-17.23-8.201-27.546 2.631-10.317 10.73-23.523 32.86-39.617 66.39 5.468 21.356 11.658 47.407 18.57 78.151 6.913 30.641 10.112 56.537 9.596 77.687-.413 21.047-1.703 37.657-3.87 49.831s-5.983 26-11.451 41.474c-5.365 15.58-10.988 27.134-16.868 34.665-5.778 7.635-12.793 12.948-21.047 15.94s-15.527 2.012-21.82-2.94c-6.19-4.85-10.988-13.928-14.392-27.237-3.302-13.31-3.405-30.848-.31-52.617 3.095-21.666 6.913-42.454 11.452-62.366s7.841-35.181 9.905-45.807c2.166-10.73 5.055-22.955 8.666-36.677 3.714-13.721 8.77-37.4 15.166-71.032-5.571-14.031-16.25-26.927-32.034-38.69.722-9.49 3.043-16.867 6.964-22.13m30.332 79.7c-6.706 33.427-11.452 56.176-14.237 68.247-2.786 11.968-6.19 27.546-10.214 46.736s-8.254 40.494-12.69 63.914-5.83 41.835-4.178 55.247c1.753 13.515 5.777 20.84 12.07 21.975 6.397 1.135 11.556 0 15.476-3.405 4.023-3.404 8.563-9.904 13.618-19.499s9.697-25.019 13.928-46.272c4.333-21.15 6.396-37.812 6.19-49.986-.104-12.174-1.496-28.99-4.179-50.45-2.579-21.562-7.84-50.398-15.785-86.508"/><path d="M558.22 171.485c2.504.706 3.965 2.383 4.382 5.031-.521 2.472-1.095 4.325-1.721 5.561-.522 1.148-1.305 2.03-2.348 2.648-.94.53-1.879 1.28-2.818 2.25-.834.884-1.774 2.384-2.817 4.502-1.044 2.03-3.861 6.444-8.452 13.24 3.443 4.237 5.948 18.007 7.513 41.308s-1.67 41.176-9.704 53.622c-7.93 12.358-15.391 20.875-22.382 25.553s-14.505 8.077-22.539 10.195c-7.93 2.118-15.13 3.398-21.6 3.84-6.366.529-13.566.132-21.6-1.192s-14.453-4.237-19.252-8.739c-4.8-4.413-8.818-10.503-12.052-18.271-3.235-7.856-4.383-18.095-3.443-30.717 1.043-12.622 5.165-25.42 12.364-38.395 7.2-13.063 15.443-23.215 24.73-30.452 9.392-7.238 17.74-12.357 25.044-15.359 7.304-3.089 14.713-4.766 22.225-5.031 7.513-.353 12.835-.309 15.965.132 3.13.354 8.243 2.03 15.338 5.032 6.261-4.767 10.122-8.474 11.583-11.122 1.461-2.736 3.235-6.531 5.322-11.386l6.261-2.251m-86.243 40.78c1.983 3.177 8.244 6.266 18.783 9.268 10.643 2.912 23.06-3.266 37.251-18.536-5.634-2.56-10.956-4.192-15.964-4.899s-10.852-.088-17.53 1.854-14.192 6.046-22.54 12.313m61.982 1.854c-7.304 9.356-18.678 15.668-34.122 18.933-15.443 3.177-27.287-1.5-35.53-14.035-10.017 15.888-16.8 30.187-20.347 42.898-3.548 12.622-3.444 26.878.313 42.765 3.86 15.8 8.504 24.847 13.93 27.142 5.53 2.295 11.948 3.045 19.252 2.25s14.296-3.354 20.974-7.679c6.678-4.413 13.252-11.96 19.722-22.64 6.573-10.68 10.956-24.096 13.147-40.25 2.296-16.24 3.183-32.702 2.661-49.385m47.106-31.907c3.13.617 4.8 2.383 5.009 5.295l18.625 31.776c15.652-17.035 28.173-26.788 37.565-29.26 9.496-2.472 17.74 1.191 24.73 10.989 6.992 9.71 9.496 27.892 7.514 54.549 7.2-27.892 14.348-45.413 21.444-52.563 7.2-7.149 13.252-11.563 18.156-13.24 4.905-1.764 10.226-2.294 15.965-1.588 5.844.618 10.905 3.09 15.182 7.414s6.313 13.196 6.105 26.613c-.105 13.328-2.557 29.879-7.357 49.65-4.8 19.683-7.304 34.953-7.513 45.81s1.409 17.3 4.852 19.33c3.548 2.03 7.93 1.942 13.148-.265s8.713-4.766 10.487-7.679 2.921-3.928 3.443-3.045c.626.883.94 1.942.94 3.177.103 1.236.312 3.09.625 5.561.313 2.56-1.148 5.384-4.382 8.474-3.235 3.09-8.452 4.457-15.652 4.104-7.096-.353-13.513-2.383-19.252-6.09-5.739-3.619-9.235-10.636-10.486-21.052-1.253-10.503-.575-21.14 2.034-31.909 5.844-35.924 9.026-59.094 9.548-69.509.626-10.503-.991-17.433-4.852-20.787-3.757-3.354-9.34-2.074-16.748 3.84-7.304 5.825-13.095 14.652-17.374 26.48-4.278 11.74-7.356 20.345-9.234 25.818-1.879 5.384-4.54 16.373-7.983 32.967-.104 2.648-1.148 5.12-3.13 7.414-1.67 2.03-4.174 3.09-7.513 3.178-1.044-1.324-2.087-2.913-3.13-4.766l-1.096-.265-1.253-36.013c-.313-18.535-1.982-32.57-5.008-42.103-3.026-9.62-6.209-14.784-9.548-15.49-3.235-.707-8.035 1.28-14.4 5.957-6.365 4.59-13.148 11.696-20.348 21.316 1.983 4.325 5.165 13.858 9.548 28.599s6.417 26.26 6.104 34.556-1.148 14.829-2.504 19.595-3.757 10.194-7.2 16.285-7.043 10.592-10.8 13.505c-3.652 3-8.087 5.075-13.304 6.222-5.218 1.236-9.809.883-13.774-1.059s-7.043-5.517-9.235-10.724c-2.087-5.208-2.139-12.049-.156-20.522 1.982-8.562 4.382-16.727 7.2-24.494 2.921-7.855 5.06-13.857 6.417-18.006 1.357-4.237 3.183-9.048 5.478-14.432s4.018-11.298 5.165-17.742c-5.008-14.122-10.852-27.715-17.53-40.78l-3.13-3.177c.208-1.235.625-2.471 1.252-3.707 2.4-3.442 4.852-6.179 7.356-8.209m17.06 65.935c-3.547 9.71-5.582 15.536-6.104 17.477-.417 1.854-2.921 9.313-7.513 22.376s-7.095 21.36-7.513 24.89-.26 7.724.47 12.579 2.556 7.414 5.478 7.68c2.922.352 5.061.176 6.418-.53 1.46-.618 3.756-2.78 6.886-6.488 3.235-3.795 5.844-10.636 7.827-20.522 1.982-9.974 2.19-19.065.626-27.274-1.566-8.297-2.557-13.151-2.974-14.564-.313-1.5-1.513-6.708-3.6-15.623" font-size="294.82"/></g><path d="M274.167 192.004c-8.189-5.814-38.306-.512-52.122 6.174-20.46 9.907-23.104 22.341-19.03 31.475 5.407 12.107 15.37 12.13 25.507 7.374 17.057-7.998 27.5-47.697 45.645-45.024z" fill-rule="evenodd" opacity=".9" fill="#9acd32"/><g fill="#ffb6c1"><path d="M140.515 129.422a35.294 45.396-16.762 11-65.731 26.003 35.294 45.396-16.762 1165.73-26.003z"/><path d="M142.72 70.683a46.376 34.02-5.88 01.736 68.17 46.376 34.02-5.88 11-.736-68.17z"/><path d="M52.912 94.988a47.721 33.196-33.003 1131.948 58.309 47.721 33.196-33.003 11-31.948-58.309z"/><path d="M82.583 51.677a42.108 30.573 34.328 11-37.076 48.671 42.108 30.573 34.328 1137.076-48.671z"/><path d="M148.53 68.758a34.216 44.767 4.376 11-68.334-3.771 34.216 44.767 4.376 1168.335 3.77z"/></g><g fill="#fff"><path d="M124.391 119.927a20.824 26.784-16.76 11-38.782 15.342 20.824 26.784-16.76 1138.782-15.342z"/><path d="M125.675 80.106a27.363 20.073-5.882 11.433 40.222 27.363 20.073-5.882 11-.433-40.222z"/><path d="M72.738 99.612a28.156 19.586-33.003 1118.85 34.403 28.156 19.586-33.003 11-18.85-34.403z"/><path d="M90.209 74.047a24.845 18.038 34.328 11-21.876 28.716A24.845 18.038 34.328 1190.21 74.047z"/><path d="M129.133 84.135a20.188 26.413 4.377 11-40.318-2.225 20.188 26.413 4.377 1140.318 2.225z"/></g><path d="M110.2 92.606a16.217 15.824-9.577 01-19.428 25.503 16.217 15.824-9.577 1119.427-25.503z" fill="#f0e060"/><path d="M120.011 258.582c-1.362 9.95 17.283 34.186 29.606 43.335 18.254 13.545 30.5 10.13 36.712 2.29 8.229-10.398 3.637-19.239-5.273-26.02-14.987-11.414-55.014-2.286-61.045-19.605zm670.423 12.959c.976 6.182-10.956 19.536-18.903 24.167-11.773 6.855-19.783 3.818-23.9-1.451-5.454-6.99-2.54-12.032 3.204-15.482 9.663-5.807 35.824 2.875 39.599-7.234z" fill-rule="evenodd" opacity=".9" fill="#9acd32"/><g fill="#db7093"><path d="M792.662 323.036a10.83 13.93-54.002 11-11.228 18.56 10.83 13.93-54.002 1111.228-18.56z"/><path d="M782.292 308.277a14.23 10.44-43.123 0012.84 16.517 14.23 10.44-43.123 10-12.84-16.517z"/><path d="M764.867 330.892a14.644 10.187-70.245 1118.633 8.312 14.644 10.187-70.245 11-18.633-8.312z"/><path d="M764.072 314.802a12.921 9.382-2.912 10-.019 18.775 12.921 9.382-2.912 10.02-18.775z"/><path d="M783.354 306.728a10.5 13.737-32.865 11-17.393 11.769 10.5 13.737-32.865 1117.393-11.77z"/></g><g fill="#fff"><path d="M786.96 323.71a6.39 8.22-54 11-6.625 10.95 6.39 8.22-54 116.625-10.95z"/><path d="M779.878 313.745a8.397 6.16-43.124 117.576 9.745 8.397 6.16-43.124 11-7.576-9.745z"/><path d="M770.569 328.34a8.64 6.01-70.245 1110.994 4.904 8.64 6.01-70.245 11-10.994-4.904z"/><path d="M770.09 318.85a7.624 5.535-2.912 10-.012 11.078 7.624 5.535-2.912 10.011-11.077z"/><path d="M781.471 314.087a6.195 8.105-32.864 11-10.262 6.943 6.195 8.105-32.864 1110.262-6.943z"/></g><path d="M778.42 319.672a4.976 4.856-46.828 00-.01 9.838 4.976 4.856-46.828 10.01-9.838z" fill="#f0e060"/><path d="M689.589 233.973c-.631 4.605 7.993 15.825 13.694 20.06 8.446 6.272 14.112 4.692 16.987 1.064 3.808-4.812 1.684-8.905-2.438-12.045-6.933-5.284-25.454-1.062-28.243-9.079z" fill-rule="evenodd" opacity=".9" fill="#9acd32"/></svg>